<?xml version="1.0" encoding="UTF-8"?>
<svg version="1.1" xmlns="http://www.w3.org/2000/svg" width="304" height="326">
<path d="M0 0 C100.32 0 200.64 0 304 0 C304 107.58 304 215.16 304 326 C203.68 326 103.36 326 0 326 C0 218.42 0 110.84 0 0 Z " fill="#CCD19C" transform="translate(0,0)"/>
<path d="M0 0 C7.26 0 14.52 0 22 0 C21.97905273 1.54268555 21.95810547 3.08537109 21.93652344 4.67480469 C21.8636591 10.44472833 21.81803192 16.21461198 21.78027344 21.98486328 C21.76026333 24.47353982 21.73304657 26.96216998 21.69824219 29.45068359 C21.64925656 33.04536444 21.62692417 36.63941913 21.609375 40.234375 C21.58872986 41.33174988 21.56808472 42.42912476 21.54681396 43.55975342 C21.54210642 60.07915943 29.20034964 70.33926606 39.19921875 82.66796875 C45 90.18004338 45 90.18004338 45 94 C45.86625 94.0825 46.7325 94.165 47.625 94.25 C55.00972473 95.89104994 60.86771534 101.82053142 65.3203125 107.76171875 C70.02272604 114.02691044 77.68342505 119.11250875 85.48046875 120.4140625 C86.16753906 120.44242187 86.85460937 120.47078125 87.5625 120.5 C91 121 91 121 93.3125 123.9375 C96.23979622 130.26045984 98.55494926 136.97064269 98 144 C94.55913282 142.4707257 91.90760069 140.37237071 89 138 C89.04640625 138.95519531 89.0928125 139.91039062 89.140625 140.89453125 C89.42822524 151.19678271 87.72304337 158.745388 83 168 C82.34 168 81.68 168 81 168 C80.74605469 167.22914063 80.49210938 166.45828125 80.23046875 165.6640625 C79.88628906 164.66117188 79.54210937 163.65828125 79.1875 162.625 C78.85105469 161.62726563 78.51460937 160.62953125 78.16796875 159.6015625 C77.1493425 156.7154291 77.1493425 156.7154291 74 155 C73.9175 156.11375 73.835 157.2275 73.75 158.375 C72.42302652 168.44230543 67.36932876 176.27852324 61 184 C60.31089539 184.86214111 59.62179077 185.72428223 58.9118042 186.61254883 C54.98562574 189.83170737 52.24820383 189.74642379 47.31347656 189.7421875 C46.44938171 189.76058685 45.58528687 189.77898621 44.69500732 189.79794312 C41.84321041 189.85046024 38.99286879 189.8651645 36.140625 189.875 C34.15150399 189.89361516 32.1623885 189.91282982 30.17327881 189.93261719 C26.00373995 189.96705621 21.83471277 189.98032734 17.66503906 189.98144531 C12.33631894 189.98652028 7.01147372 190.06508669 1.68375015 190.1625061 C-2.42580035 190.22579737 -6.53442453 190.2389249 -10.64441681 190.23834229 C-12.60764031 190.24606135 -14.57088174 190.27165408 -16.53362274 190.31585693 C-31.86028201 190.63095363 -31.86028201 190.63095363 -37.1619873 186.58984375 C-39.44459052 183.82707166 -41.24169875 181.1146207 -43 178 C-43.9159212 176.81631689 -44.84761741 175.64412366 -45.8125 174.5 C-49.86759207 168.65672497 -52.77328058 161.15284537 -52 154 C-54.9777759 156.49996659 -55.94548483 159.04711071 -57.1875 162.6875 C-57.53167969 163.68136719 -57.87585938 164.67523438 -58.23046875 165.69921875 C-58.48441406 166.45847656 -58.73835938 167.21773437 -59 168 C-66.12386141 158.82039573 -67.20683531 150.42190521 -67 139 C-67.94875 139.639375 -68.8975 140.27875 -69.875 140.9375 C-73 143 -73 143 -75 144 C-74.82695617 136.00852143 -74.19050646 127.39201258 -69 121 C-64.39110755 118.84020516 -59.76786437 117.68343673 -54.83789062 116.49902344 C-48.16070329 114.6860358 -44.06636125 110.21869576 -39.7890625 105.0625 C-35.77161745 100.43103496 -31.08932631 95.56582677 -25 94 C-24.01 94 -23.02 94 -22 94 C-21.80792969 93.195625 -21.61585937 92.39125 -21.41796875 91.5625 C-19.49144002 86.7222956 -16.49409719 83.08944914 -13.3125 79 C-1.93343827 64.01848714 -1.93343827 64.01848714 2.1328125 46.0703125 C2.13482666 45.11608398 2.13684082 44.16185547 2.13891602 43.17871094 C2.13202759 41.66712402 2.13202759 41.66712402 2.125 40.125 C2.12234131 39.09665039 2.11968262 38.06830078 2.11694336 37.00878906 C2.38127516 23.81704878 2.38127516 23.81704878 0 11 C0 7.37 0 3.74 0 0 Z " fill="#F6F6F5" transform="translate(141,102)"/>
<path d="M0 0 C13.2671426 7.10015277 26.16868433 18.05049899 34.9453125 30.3203125 C36.16155808 32.13579432 36.16155808 32.13579432 38.25 33 C38.58 31.35 38.91 29.7 39.25 28 C42.2190652 30.47006264 42.98898943 32.73881064 43.9375 36.4375 C44.18886719 37.38496094 44.44023437 38.33242187 44.69921875 39.30859375 C45.25 42 45.25 42 45.25 46 C47.56 46 49.87 46 52.25 46 C54.63128525 55.01593536 55.96607598 63.68811498 56.25 73 C56.28254883 73.89170898 56.31509766 74.78341797 56.34863281 75.70214844 C56.4475978 78.71808138 56.50971687 81.732926 56.5625 84.75 C56.59239014 85.70825684 56.62228027 86.66651367 56.65307617 87.65380859 C56.70864102 94.58089317 55.23840667 99.7785714 52.25 106 C51.8271875 106.93070312 51.404375 107.86140625 50.96875 108.8203125 C47.43657045 115.49975459 43.11697126 121.40319057 38.4765625 127.34228516 C36.16441943 130.32236416 34.27962764 132.93679437 32.66796875 136.375 C31.25 139 31.25 139 29.15625 140.07421875 C28.3621875 140.27660156 27.568125 140.47898438 26.75 140.6875 C19.57099474 143.16809333 15.27620227 148.55687773 10.25 154 C2.91506062 161.77707638 -6.0078519 165.50424937 -16.6171875 166.18359375 C-24.72162236 166.36631973 -24.72162236 166.36631973 -28.75 164 C-27.66317435 160.73952306 -27.11439499 160.29603011 -24.5 158.3125 C-19.78860382 154.43480767 -16.67772492 149.78317476 -14.75 144 C-15.34167969 144.03480469 -15.93335937 144.06960937 -16.54296875 144.10546875 C-21.5101076 144.27563175 -24.65728689 144.16855209 -28.75 141 C-27.68573277 138.84659948 -26.59677383 136.71444213 -25.4609375 134.59765625 C-24.79964844 133.34275391 -24.79964844 133.34275391 -24.125 132.0625 C-23.67898437 131.22847656 -23.23296875 130.39445313 -22.7734375 129.53515625 C-21.67726492 126.819828 -21.55296118 124.8985447 -21.75 122 C-23.235 122.495 -23.235 122.495 -24.75 123 C-23.05636364 113.69322153 -19.18475441 106.7311078 -13.45703125 99.25 C-11.73525523 97.12411537 -11.73525523 97.12411537 -10.75 95 C-11.86375 94.731875 -12.9775 94.46375 -14.125 94.1875 C-17.75 93 -17.75 93 -19.75 90 C-20.05550781 89.360625 -20.36101562 88.72125 -20.67578125 88.0625 C-22.24606409 85.04755695 -24.43515023 82.60234914 -26.60546875 80 C-27.75 78 -27.75 78 -27.5546875 75.828125 C-26.75 74 -26.75 74 -24.6875 72.75 C-24.048125 72.5025 -23.40875 72.255 -22.75 72 C-22.91081055 71.00105713 -23.07162109 70.00211426 -23.23730469 68.97290039 C-24.202757 62.18034502 -23.99309414 55.28569439 -24 48.4375 C-24.00133942 47.6590976 -24.00267883 46.88069519 -24.00405884 46.07870483 C-23.99828051 30.58579928 -23.98412528 14.44026977 -17.75 0 C-12.39182369 -5.0519948 -5.97512145 -2.76217493 0 0 Z " fill="#2E3034" transform="translate(87.75,57)"/>
<path d="M0 0 C4.00740669 2.55016789 5.39425176 5.46122739 6.6875 9.875 C11.32744588 31.49292966 11.35169444 55.1013678 9 77 C10.98 77.33 12.96 77.66 15 78 C15 78.99 15 79.98 15 81 C14.34 81 13.68 81 13 81 C12.73445313 81.57234375 12.46890625 82.1446875 12.1953125 82.734375 C10.94323109 85.1076012 9.5063648 87.12213286 7.875 89.25 C7.33617187 89.95640625 6.79734375 90.6628125 6.2421875 91.390625 C5.83226562 91.92171875 5.42234375 92.4528125 5 93 C5.66 93.33 6.32 93.66 7 94 C0.25 98 0.25 98 -2 98 C0.92570709 103.26627277 4.10895516 108.31452119 7.4140625 113.3515625 C9.98988773 117.65306375 11.28786825 120.96230559 11 126 C9.02 125.01 9.02 125.01 7 124 C9.06958784 132.09574068 10.96037968 138.09764378 17 144 C12.07015675 146.03993514 8.42039575 147.40652968 3 147 C5.13899789 153.15410007 6.99396182 157.61971659 12 162 C13.35555293 163.64864545 14.69631653 165.31003995 16 167 C7.12023045 169.8607505 -5.7235703 169.04090586 -14.015625 165.0234375 C-20.19158404 161.40228166 -24.45398301 156.27321935 -29.1184082 150.96044922 C-32.31314118 147.44235892 -34.69806999 145.24177407 -39.375 143.875 C-43.92865925 142.51329482 -45.21426659 140.63558278 -47.5 136.5 C-48.04398438 135.44039062 -48.58796875 134.38078125 -49.1484375 133.2890625 C-51.12271306 129.78201605 -53.4750579 126.87272268 -56.125 123.875 C-63.69050453 115.07923865 -68.2430179 105.81155716 -68.265625 94.01953125 C-68.26826355 93.3723967 -68.2709021 92.72526215 -68.27362061 92.05851746 C-68.27741903 89.97631003 -68.26485711 87.89465172 -68.25 85.8125 C-68.24822754 85.10456299 -68.24645508 84.39662598 -68.24462891 83.66723633 C-68.21037139 72.02363291 -67.55411823 60.5448783 -66 49 C-63.36 49 -60.72 49 -58 49 C-58.061875 47.845 -58.12375 46.69 -58.1875 45.5 C-58.1875 40.73924351 -57.03581577 37.29783328 -55 33 C-53.515 32.505 -53.515 32.505 -52 32 C-52 33.65 -52 35.3 -52 37 C-49.10189104 34.18971252 -46.37911316 31.31423446 -43.75 28.25 C-34.58511301 17.77023629 -15.74855122 -3.08795122 0 0 Z " fill="#2B2E32" transform="translate(230,54)"/>
<path d="M0 0 C2.0625 1.8125 2.0625 1.8125 3 4 C2.89140486 8.9953766 1.09416779 12.1531968 -2 16 C-7.15789474 20 -7.15789474 20 -11 20 C-10.08780985 23.75011505 -9.28530499 24.82532347 -5.9375 26.875 C-1.60553405 28.46670357 2.59016295 28.23101458 7 27 C11.44033342 24.925141 13.12077635 22.64497698 15.3125 18.3125 C15.82425781 17.31863281 16.33601563 16.32476562 16.86328125 15.30078125 C17.23839844 14.54152344 17.61351562 13.78226563 18 13 C18.66 13 19.32 13 20 13 C19.44979814 18.95653317 17.67597186 23.84114711 15.3125 29.3125 C14.95599365 30.16134766 14.5994873 31.01019531 14.23217773 31.88476562 C12.3499291 36.26643499 10.38313669 40.13189385 7.5625 44 C4.07567042 49.28648355 4.3121381 55.0789344 4.31274414 61.2265625 C4.28754889 66.24504418 3.82260388 69.65702401 1 74 C-4.9263672 78.56824138 -9.64365569 79.4672921 -16.98046875 79.4140625 C-21.62853222 78.77668252 -24.17197333 76.63153286 -27 73 C-27.55945313 72.29746094 -28.11890625 71.59492188 -28.6953125 70.87109375 C-30.56431142 66.75817697 -30.06918349 63.18868313 -29.8125 58.75 C-29.6089828 51.89050123 -29.76498334 47.52264944 -34.34375 42.1015625 C-37.59475772 37.97646309 -39.12694734 32.86196648 -41 28 C-41.32226562 27.24203125 -41.64453125 26.4840625 -41.9765625 25.703125 C-43.84688118 21.19338463 -44.29904659 17.78474546 -44 13 C-41.22489971 14.38755014 -40.93658568 16.06760872 -39.6875 18.875 C-38.24916516 21.77654002 -37.17316651 23.82683349 -34.875 26.125 C-29.22979441 27.84310605 -23.37154625 27.9486185 -17.875 25.75 C-15.81924111 23.8312917 -15.28635841 22.76813126 -15 20 C-15.721875 19.95875 -16.44375 19.9175 -17.1875 19.875 C-21.90170504 18.40835843 -24.02532156 14.72783906 -26.375 10.5625 C-27.25599835 6.95040677 -27.03914622 4.57206514 -26 1 C-19.31706497 -6.04417476 -7.92961952 -4.03689721 0 0 Z " fill="#DC9793" transform="translate(165,187)"/>
<path d="M0 0 C2.0625 1.8125 2.0625 1.8125 3 4 C2.89140486 8.9953766 1.09416779 12.1531968 -2 16 C-7.15789474 20 -7.15789474 20 -11 20 C-10.08780985 23.75011505 -9.28530499 24.82532347 -5.9375 26.875 C-1.60553405 28.46670357 2.59016295 28.23101458 7 27 C11.44033342 24.925141 13.12077635 22.64497698 15.3125 18.3125 C15.82425781 17.31863281 16.33601563 16.32476562 16.86328125 15.30078125 C17.23839844 14.54152344 17.61351562 13.78226563 18 13 C18.66 13 19.32 13 20 13 C19.4499411 18.95498548 17.67987863 23.8437353 15.3125 29.3125 C14.95526855 30.1475708 14.59803711 30.9826416 14.22998047 31.84301758 C8.80949965 44.28058801 8.80949965 44.28058801 5 49 C4.34 49 3.68 49 3 49 C3 43.72 3 38.44 3 33 C0.69 33 -1.62 33 -4 33 C-6.2578125 32.0546875 -6.2578125 32.0546875 -8.125 30.875 C-11.17851252 29.11741945 -11.17851252 29.11741945 -14.625 29.625 C-15.40875 30.07875 -16.1925 30.5325 -17 31 C-21.54857288 32.74200663 -23.87268067 33 -29 33 C-29 37.95 -29 42.9 -29 48 C-29.66 48 -30.32 48 -31 48 C-35.54719802 42.39695105 -38.22252772 35.45352478 -40.875 28.8125 C-41.18526123 28.05275879 -41.49552246 27.29301758 -41.81518555 26.51025391 C-43.64118614 21.77740064 -44.33575543 18.06990703 -44 13 C-41.22489971 14.38755014 -40.93658568 16.06760872 -39.6875 18.875 C-38.24916516 21.77654002 -37.17316651 23.82683349 -34.875 26.125 C-29.22979441 27.84310605 -23.37154625 27.9486185 -17.875 25.75 C-15.81924111 23.8312917 -15.28635841 22.76813126 -15 20 C-15.721875 19.95875 -16.44375 19.9175 -17.1875 19.875 C-21.90170504 18.40835843 -24.02532156 14.72783906 -26.375 10.5625 C-27.25599835 6.95040677 -27.03914622 4.57206514 -26 1 C-19.31706497 -6.04417476 -7.92961952 -4.03689721 0 0 Z " fill="#3C3D3E" transform="translate(165,187)"/>
<path d="M0 0 C7.4054699 7.63843084 6.43257829 21.20875283 6.28125 31.17041016 C6.24940549 33.28956258 6.24019611 35.40797309 6.234375 37.52734375 C6.16455052 47.83544948 6.16455052 47.83544948 5 49 C-5.09269325 49.50228022 -5.09269325 49.50228022 -9.0234375 46.40625 C-10.5625 44.5 -10.5625 44.5 -11.81640625 42.59375 C-13.0003488 40.68150238 -13.0003488 40.68150238 -16 40 C-15 37 -15 37 -12.9375 35.8125 C-12.298125 35.544375 -11.65875 35.27625 -11 35 C-11 34.01 -11 33.02 -11 32 C-16.38744379 28.94226163 -22.01448228 27.50170462 -28 26 C-26.97566999 16.18350411 -19.11864775 9.75911522 -11.98046875 3.59375 C-7.7735882 0.20833134 -5.41460283 -0.58013602 0 0 Z " fill="#76665E" transform="translate(223,76)"/>
<path d="M0 0 C10.10473334 1.87124691 18.26836946 11.3492461 23.875 19.4375 C26.375 23.19414894 26.375 23.19414894 26.375 26.625 C25.52228516 26.78935547 25.52228516 26.78935547 24.65234375 26.95703125 C19.54015591 28.00677934 15.11231318 29.44583594 10.375 31.625 C9.385 31.955 8.395 32.285 7.375 32.625 C8.42374998 35.24687494 9.02431313 36.41871361 11.5 37.875 C12.11875 38.1225 12.7375 38.37 13.375 38.625 C13.375 39.285 13.375 39.945 13.375 40.625 C10.875 42.125 10.875 42.125 8.375 43.625 C7.67375 44.49125 6.9725 45.3575 6.25 46.25 C2.98806983 48.94463796 1.79576456 49.00248252 -2.3046875 49.2734375 C-3.79718018 49.38051025 -3.79718018 49.38051025 -5.31982422 49.48974609 C-6.08053223 49.53437988 -6.84124023 49.57901367 -7.625 49.625 C-7.67530772 45.46648622 -7.71113707 41.30814448 -7.73486328 37.14941406 C-7.74477813 35.74150499 -7.75831412 34.33361567 -7.77587891 32.92578125 C-8.1521229 1.94098164 -8.1521229 1.94098164 0 0 Z " fill="#79685F" transform="translate(83.625,75.375)"/>
<path d="M0 0 C2.0625 1.8125 2.0625 1.8125 3 4 C2.89140486 8.9953766 1.09416779 12.1531968 -2 16 C-5.74890577 18.96788373 -7.15769617 20 -12 20 C-12.33 20.99 -12.66 21.98 -13 23 C-13.33 22.01 -13.66 21.02 -14 20 C-15.093125 19.71125 -16.18625 19.4225 -17.3125 19.125 C-22.38818176 17.57648692 -23.82900023 15.11895196 -26.3125 10.625 C-27.2677955 6.97750809 -27.05340546 4.62108127 -26 1 C-19.31706497 -6.04417476 -7.92961952 -4.03689721 0 0 Z " fill="#2E3035" transform="translate(165,187)"/>
<path d="M0 0 C2.42647513 0.96758202 3.73342524 1.53150481 5.046875 3.83984375 C5.27890625 4.53207031 5.5109375 5.22429687 5.75 5.9375 C6.11351562 6.97197266 6.11351562 6.97197266 6.484375 8.02734375 C7 10 7 10 7 13 C7.66 13 8.32 13 9 13 C9.66 11.02 10.32 9.04 11 7 C11.66 7 12.32 7 13 7 C12.71515154 8.73030291 12.42180062 10.45920714 12.125 12.1875 C11.96257812 13.15042969 11.80015625 14.11335938 11.6328125 15.10546875 C11 18 11 18 9 23 C8.34 26.63 7.68 30.26 7 34 C-0.92 34 -8.84 34 -17 34 C-15.36577031 30.73154062 -13.97145861 28.6198017 -11.6875 25.875 C-5.46937085 17.9633679 -2.27860388 9.74427349 0 0 Z " fill="#343739" transform="translate(215,257)"/>
<path d="M0 0 C0.66 0 1.32 0 2 0 C2.14695312 0.81791016 2.14695312 0.81791016 2.296875 1.65234375 C4.23365733 11.41973741 8.07095509 18.50966081 14.09765625 26.421875 C16 29 16 29 19 34 C11.41 34 3.82 34 -4 34 C-8.28571429 15.85714286 -8.28571429 15.85714286 -10 8 C-9.34 8 -8.68 8 -8 8 C-7.34 9.32 -6.68 10.64 -6 12 C-4.02 8.04 -2.04 4.08 0 0 Z " fill="#333539" transform="translate(87,256)"/>
<path d="M0 0 C4.64948341 0.07439173 7.29390465 1.29578511 10.6328125 4.50390625 C12.85352074 7.96066908 12.42672244 11.49662542 11.875 15.4375 C11.215 15.4375 10.555 15.4375 9.875 15.4375 C9.6275 16.05625 9.38 16.675 9.125 17.3125 C7.58677504 19.92748244 6.75149576 20.50458246 3.875 21.4375 C-0.50554581 21.92422731 -2.61215991 21.72241116 -6.5 19.5625 C-9.13408379 17.43014646 -9.94882874 16.71851673 -10.3984375 13.44921875 C-10.59657651 8.91488373 -10.65656961 7.09173952 -7.6875 3.4375 C-6.841875 2.7775 -5.99625 2.1175 -5.125 1.4375 C-3.58528172 -0.10221828 -2.14014329 0.11970293 0 0 Z " fill="#DCDBDB" transform="translate(183.125,150.5625)"/>
<path d="M0 0 C2.8100346 1.79363911 4.50940468 3.01880935 6 6 C6.47653732 9.40814662 6.54479788 12.59768384 6 16 C3.34350507 19.40576272 1.91104845 20.52990252 -2.19140625 21.5390625 C-5.66714291 21.8566425 -8.00487448 21.69394234 -10.91015625 19.66796875 C-13.76232862 16.6809419 -14.89826913 14.5271509 -15.6875 10.4375 C-14.78113488 5.90567439 -13.24804664 4.24804664 -10 1 C-6.79826746 -0.60086627 -3.47422941 -0.49917089 0 0 Z " fill="#DEDCDC" transform="translate(125,151)"/>
<path d="M0 0 C0.66 0 1.32 0 2 0 C1.4499411 5.95498548 -0.32012137 10.8437353 -2.6875 16.3125 C-3.22334717 17.5651062 -3.22334717 17.5651062 -3.77001953 18.84301758 C-9.19050035 31.28058801 -9.19050035 31.28058801 -13 36 C-13.66 36 -14.32 36 -15 36 C-15 30.72 -15 25.44 -15 20 C-17.31 20 -19.62 20 -22 20 C-24.63759283 18.95798802 -26.60296971 17.56540753 -29 16 C-25.09547658 14.69849219 -21.79539691 15.37745947 -17.8125 15.9375 C-17.06291016 16.03740234 -16.31332031 16.13730469 -15.54101562 16.24023438 C-13.69318518 16.48739641 -11.8464734 16.74289611 -10 17 C-9.70867187 16.38640625 -9.41734375 15.7728125 -9.1171875 15.140625 C-8 13 -8 13 -6.125 10.75 C-3.52684396 7.38768042 -1.78988433 3.83682651 0 0 Z " fill="#343538" transform="translate(183,200)"/>
<path d="M0 0 C5.40432346 -0.48038431 5.40432346 -0.48038431 7.9375 1.5625 C9.46168725 5.05916486 8.92828981 7.35314716 8 11 C6.875 12.9375 6.875 12.9375 5 14 C1.39615894 14.3931463 -1.09741776 14.39343329 -4.4375 12.9375 C-6.76643994 10.04961448 -6.27050795 7.58423038 -6 4 C-5.34 4 -4.68 4 -4 4 C-4 4.66 -4 5.32 -4 6 C-2.68 5.67 -1.36 5.34 0 5 C0 3.35 0 1.7 0 0 Z " fill="#2E2F33" transform="translate(120,155)"/>
<path d="M0 0 C3.22939919 -0.35882213 4.61209763 -0.27258004 7.3125 1.625 C9.50197249 4.7064798 9.61793165 6.29241009 9 10 C7.4375 12.375 7.4375 12.375 5 14 C1.53769185 14.42519574 -0.8347167 14.63902633 -3.9375 12.9375 C-5.55479605 9.98831309 -5.18630138 7.29132441 -5 4 C-3.02 4.66 -1.04 5.32 1 6 C0.67 4.02 0.34 2.04 0 0 Z " fill="#2C2D31" transform="translate(182,155)"/>
<path d="M0 0 C2.31 0.33 4.62 0.66 7 1 C7.185625 1.763125 7.37125 2.52625 7.5625 3.3125 C9.1712019 6.32007313 10.60263859 7.36877078 13.78125 8.57421875 C18.19086475 9.42043003 22.59959773 8.66045821 27 8 C26.67 8.99 26.34 9.98 26 11 C22.51836556 12.55284165 19.28066453 11.74705947 15.625 11.125 C13.97371094 10.85042969 13.97371094 10.85042969 12.2890625 10.5703125 C10.14940868 10.19930364 8.01742442 9.77972487 5.8984375 9.3046875 C2.55398991 8.95311484 1.06479805 9.74023638 -2 11 C-5.296875 11.046875 -5.296875 11.046875 -8.75 10.75 C-9.89984375 10.66234375 -11.0496875 10.5746875 -12.234375 10.484375 C-13.14703125 10.32453125 -14.0596875 10.1646875 -15 10 C-15.33 9.34 -15.66 8.68 -16 8 C-15.11957031 8.03480469 -14.23914063 8.06960937 -13.33203125 8.10546875 C-11.58986328 8.14607422 -11.58986328 8.14607422 -9.8125 8.1875 C-8.08966797 8.23970703 -8.08966797 8.23970703 -6.33203125 8.29296875 C-2.69523136 7.97320323 -0.8784776 7.20118875 2 5 C2.87822312 2.91466367 2.87822312 2.91466367 3 1 C2.01 0.67 1.02 0.34 0 0 Z " fill="#464748" transform="translate(147,206)"/>
<path d="M0 0 C1.23556641 0.01740234 1.23556641 0.01740234 2.49609375 0.03515625 C3.32238281 0.04417969 4.14867187 0.05320313 5 0.0625 C5.63808594 0.07410156 6.27617187 0.08570313 6.93359375 0.09765625 C4.95359375 1.08765625 4.95359375 1.08765625 2.93359375 2.09765625 C3.59359375 2.75765625 4.25359375 3.41765625 4.93359375 4.09765625 C3.94359375 4.42765625 2.95359375 4.75765625 1.93359375 5.09765625 C1.93359375 6.74765625 1.93359375 8.39765625 1.93359375 10.09765625 C0.28359375 9.76765625 -1.36640625 9.43765625 -3.06640625 9.09765625 C-3.39640625 11.07765625 -3.72640625 13.05765625 -4.06640625 15.09765625 C-4.39640625 15.09765625 -4.72640625 15.09765625 -5.06640625 15.09765625 C-5.39640625 13.11765625 -5.72640625 11.13765625 -6.06640625 9.09765625 C-6.06640625 11.73765625 -6.06640625 14.37765625 -6.06640625 17.09765625 C-8.43680933 14.72725317 -8.41106418 14.03462872 -8.50390625 10.78515625 C-8.44186818 6.93259208 -8.19819975 6.25986363 -5.62890625 3.09765625 C-4.78328125 2.43765625 -3.93765625 1.77765625 -3.06640625 1.09765625 C-2.06640625 0.09765625 -2.06640625 0.09765625 0 0 Z " fill="#D7D7D7" transform="translate(181.06640625,150.90234375)"/>
<path d="M0 0 C-0.99 0.66 -1.98 1.32 -3 2 C-3.72965366 4.56282742 -3.72965366 4.56282742 -4 7 C-5.32 7 -6.64 7 -8 7 C-8 6.34 -8 5.68 -8 5 C-8.66 5 -9.32 5 -10 5 C-9.938125 5.763125 -9.87625 6.52625 -9.8125 7.3125 C-10 10 -10 10 -11.5 11.8125 C-11.995 12.204375 -12.49 12.59625 -13 13 C-14.50934217 9.98131566 -14.17510672 7.32702771 -14 4 C-12 1 -12 1 -9.25 0.3125 C-6.13994266 0.01345603 -3.12201686 -0.07433373 0 0 Z " fill="#DDDCDB" transform="translate(124,154)"/>
<path d="M0 0 C0.66 0 1.32 0 2 0 C2.05796132 4.10410755 2.09358313 8.20811016 2.125 12.3125 C2.14175781 13.47974609 2.15851563 14.64699219 2.17578125 15.84960938 C2.18222656 16.96787109 2.18867188 18.08613281 2.1953125 19.23828125 C2.20578613 20.26993408 2.21625977 21.30158691 2.22705078 22.36450195 C2 25 2 25 0 28 C-0.19581346 23.52115561 -0.3802636 19.04191574 -0.5625 14.5625 C-0.61857422 13.28310547 -0.67464844 12.00371094 -0.73242188 10.68554688 C-0.78076172 9.47060547 -0.82910156 8.25566406 -0.87890625 7.00390625 C-0.9260376 5.87799072 -0.97316895 4.7520752 -1.02172852 3.59204102 C-1 1 -1 1 0 0 Z " fill="#D78F8B" transform="translate(151,215)"/>
<path d="M0 0 C0.33 0 0.66 0 1 0 C1.0825 1.11375 1.165 2.2275 1.25 3.375 C1.5735533 7.04659392 1.5735533 7.04659392 4 8.375 C4.66 8.58125 5.32 8.7875 6 9 C6.33 9.33 6.66 9.66 7 10 C9.32817964 10.36760731 11.6618385 10.70241581 14 11 C13.67 11.66 13.34 12.32 13 13 C5.08529412 13.60882353 5.08529412 13.60882353 1.4375 11.5625 C-0.68875469 7.7722199 -0.32693592 4.25016698 0 0 Z " fill="#DFDEDE" transform="translate(112,159)"/>
<path d="M0 0 C1.32 0 2.64 0 4 0 C4.56800289 4.07068737 4.30281758 5.59335926 1.8125 8.9375 C-2.42913034 12.13409098 -7.26456417 11.09316812 -12.26953125 10.58984375 C-13.17058594 10.39519531 -14.07164062 10.20054687 -15 10 C-15.33 9.34 -15.66 8.68 -16 8 C-15.11957031 8.03480469 -14.23914063 8.06960937 -13.33203125 8.10546875 C-11.58986328 8.14607422 -11.58986328 8.14607422 -9.8125 8.1875 C-8.08966797 8.23970703 -8.08966797 8.23970703 -6.33203125 8.29296875 C-2.69523136 7.97320323 -0.8784776 7.20118875 2 5 C2.87822312 2.91466367 2.87822312 2.91466367 3 1 C2.01 0.67 1.02 0.34 0 0 Z " fill="#7F8080" transform="translate(147,206)"/>
<path d="M0 0 C0.66 0 1.32 0 2 0 C2 4.95 2 9.9 2 15 C1.34 15 0.68 15 0 15 C-1.09651823 11.58860997 -0.94215473 8.79344419 -0.5625 5.25 C-0.46066406 4.26515625 -0.35882813 3.2803125 -0.25390625 2.265625 C-0.17011719 1.51796875 -0.08632812 0.7703125 0 0 Z " fill="#333838" transform="translate(134,220)"/>
<path d="M0 0 C1.26026798 2.52053595 0.91874445 3.8542098 0.5625 6.625 C0.46066406 7.44226563 0.35882813 8.25953125 0.25390625 9.1015625 C0.17011719 9.72804687 0.08632812 10.35453125 0 11 C-0.33 11 -0.66 11 -1 11 C-1.33 9.02 -1.66 7.04 -2 5 C-2 7.64 -2 10.28 -2 13 C-4 11 -4 11 -4.1953125 8.8359375 C-4.17210937 8.02382812 -4.14890625 7.21171875 -4.125 6.375 C-4.10695312 5.55773437 -4.08890625 4.74046875 -4.0703125 3.8984375 C-4.04710937 3.27195313 -4.02390625 2.64546875 -4 2 C-2.68 1.34 -1.36 0.68 0 0 Z " fill="#C0C0C0" transform="translate(177,155)"/>
<path d="M0 0 C0.66 0 1.32 0 2 0 C1.125 6.75 1.125 6.75 0 9 C-2.0625 9.625 -2.0625 9.625 -4 10 C-3.52449439 8.51965236 -3.04448784 7.04074979 -2.5625 5.5625 C-2.29566406 4.73878906 -2.02882812 3.91507813 -1.75390625 3.06640625 C-1 1 -1 1 0 0 Z " fill="#5C5E62" transform="translate(183,200)"/>
<path d="M0 0 C2 1 2 1 3.125 4.1875 C3.91680237 7.63749602 4.1714979 10.484293 4 14 C0.68518684 10.68518684 0.02786228 7.84979946 -0.125 3.1875 C-0.063125 1.6096875 -0.063125 1.6096875 0 0 Z " fill="#45474B" transform="translate(121,200)"/>
<path d="M0 0 C0.99 0.33 1.98 0.66 3 1 C1.63016497 4.16115776 1.0109362 4.9927092 -2 7 C-5.6875 6.625 -5.6875 6.625 -9 6 C-9 5.67 -9 5.34 -9 5 C-7.88625 4.731875 -6.7725 4.46375 -5.625 4.1875 C-1.78159049 3.34190981 -1.78159049 3.34190981 0 0 Z " fill="#CACACA" transform="translate(128,164)"/>
<path d="M0 0 C0.66 0 1.32 0 2 0 C2 1.98 2 3.96 2 6 C1.360625 6.12375 0.72125 6.2475 0.0625 6.375 C-0.9584375 6.684375 -0.9584375 6.684375 -2 7 C-2.33 7.66 -2.66 8.32 -3 9 C-2.5020163 5.26512223 -2.12508244 3.18762365 0 0 Z " fill="#434643" transform="translate(176,86)"/>
<path d="M0 0 C0.73605469 0.08378906 1.47210938 0.16757813 2.23046875 0.25390625 C3.20628906 0.35574219 4.18210938 0.45757812 5.1875 0.5625 C6.15042969 0.66691406 7.11335937 0.77132812 8.10546875 0.87890625 C10.94233377 0.99758751 13.25423671 0.67765639 16 0 C15.67 0.99 15.34 1.98 15 3 C11.79185733 4.36255947 9.1574202 3.87427091 5.8125 3.1875 C4.93207031 3.01605469 4.05164063 2.84460938 3.14453125 2.66796875 C2.43683594 2.44753906 1.72914063 2.22710937 1 2 C0.67 1.34 0.34 0.68 0 0 Z " fill="#737274" transform="translate(158,214)"/>
<path d="M0 0 C-0.99 0.66 -1.98 1.32 -3 2 C-3.72965366 4.56282742 -3.72965366 4.56282742 -4 7 C-5.32 6.67 -6.64 6.34 -8 6 C-7.01 6 -6.02 6 -5 6 C-5 5.01 -5 4.02 -5 3 C-5.99 3 -6.98 3 -8 3 C-8 2.34 -8 1.68 -8 1 C-5.29120665 -0.35439668 -2.99066732 -0.06501451 0 0 Z " fill="#B7B8B8" transform="translate(124,154)"/>
<path d="M0 0 C1.36118461 2.24195113 2.06138028 3.47826762 1.75 6.125 C1 8 1 8 -1 10 C-1.99 9.67 -2.98 9.34 -4 9 C-3.2884375 7.88625 -3.2884375 7.88625 -2.5625 6.75 C-1.22130673 4.38949985 -0.487688 2.63351523 0 0 Z " fill="#E7E6E6" transform="translate(191,161)"/>
<path d="M0 0 C2.64 0 5.28 0 8 0 C8.33 0.66 8.66 1.32 9 2 C8.67 2.99 8.34 3.98 8 5 C5.04590299 3.62845496 2.55991624 2.01136276 0 0 Z " fill="#E2E1E1" transform="translate(182,152)"/>
<path d="M0 0 C1.98 0 3.96 0 6 0 C5.01 0.66 4.02 1.32 3 2 C2.74969023 4.58380177 2.74969023 4.58380177 3 7 C1.68 6.67 0.36 6.34 -1 6 C-1 3 -1 3 0 0 Z " fill="#ACACAD" transform="translate(180,154)"/>
<path d="M0 0 C0.33 0 0.66 0 1 0 C1 1.65 1 3.3 1 5 C0.01 5 -0.98 5 -2 5 C-2 6.65 -2 8.3 -2 10 C-4.1519437 6.77208445 -4.20086443 5.71599191 -4 2 C-3.01 2.33 -2.02 2.66 -1 3 C-0.67 2.01 -0.34 1.02 0 0 Z " fill="#B0B28A" transform="translate(241,176)"/>
<path d="M0 0 C2.97 0.33 5.94 0.66 9 1 C7 3 7 3 3.875 3.125 C2.451875 3.063125 2.451875 3.063125 1 3 C0.67 2.01 0.34 1.02 0 0 Z " fill="#232D2F" transform="translate(135,217)"/>
<path d="M0 0 C0.33 0 0.66 0 1 0 C1.99 3.63 2.98 7.26 4 11 C2.68 10.34 1.36 9.68 0 9 C0 6.03 0 3.06 0 0 Z " fill="#F6F6F6" transform="translate(112,159)"/>
<path d="M0 0 C0 0.99 0 1.98 0 3 C-5.625 5.125 -5.625 5.125 -9 4 C-9 3.34 -9 2.68 -9 2 C-6.94921875 1.77213542 -4.8984375 1.54427083 -2.84765625 1.31640625 C-0.98859771 1.18113386 -0.98859771 1.18113386 0 0 Z " fill="#303939" transform="translate(150,214)"/>
<path d="M0 0 C0.66 0.99 1.32 1.98 2 3 C0.625 5.5 0.625 5.5 -1 8 C-1.66 8 -2.32 8 -3 8 C-1.125 2.25 -1.125 2.25 0 0 Z " fill="#C5C4C3" transform="translate(140,161)"/>
</svg>
