<?xml version="1.0" encoding="UTF-8"?>
<svg version="1.1" xmlns="http://www.w3.org/2000/svg" width="496" height="364">
<path d="M0 0 C163.68 0 327.36 0 496 0 C496 120.12 496 240.24 496 364 C332.32 364 168.64 364 0 364 C0 243.88 0 123.76 0 0 Z " fill="#F2F2F4" transform="translate(0,0)"/>
<path d="M0 0 C2.78050855 2.34989882 5.42760278 4.79688846 8.06640625 7.3046875 C11.1752842 10.16104673 14.40545783 12.7426744 17.75 15.3125 C24.78715271 20.74528259 31.46819168 26.53927045 38.15527344 32.39355469 C41.14423257 34.99643334 44.16277076 37.56385231 47.1875 40.125 C47.71609619 40.57423828 48.24469238 41.02347656 48.78930664 41.48632812 C50.18520004 42.66668416 51.59216419 43.83391378 53 45 C53.56340088 45.53069092 54.12680176 46.06138184 54.70727539 46.6081543 C57.96000862 48.58279301 60.60518116 48.43661074 64.390625 48.51171875 C65.44754547 48.53864555 65.44754547 48.53864555 66.52581787 48.56611633 C68.76715179 48.62011858 71.00827405 48.65408088 73.25 48.6875 C74.77346689 48.72068218 76.29690589 48.75517269 77.8203125 48.79101562 C81.5466716 48.87583738 85.27310463 48.94269724 89 49 C89.98976514 54.78111699 90.16092919 60.39524218 90.16796875 66.25390625 C90.17129715 67.23181625 90.17462555 68.20972626 90.17805481 69.2172699 C90.183101 71.28229302 90.18546385 73.34732424 90.18530273 75.41235352 C90.18747614 78.52829927 90.20562062 81.64388299 90.22460938 84.75976562 C90.26511785 98.69189316 89.44059964 111.85058394 85.8125 125.375 C85.59819336 126.17462158 85.38388672 126.97424316 85.16308594 127.7980957 C79.59975884 147.64941598 68.41875706 164.84226051 57.52954102 182.12792969 C52.40847174 190.27970381 47.55557907 198.52049778 43 207 C42.42765625 208.03898438 41.8553125 209.07796875 41.265625 210.1484375 C33.02653243 225.68850814 31.85669295 241.35035114 31.4375 258.625 C31.37498047 259.77484375 31.31246094 260.9246875 31.24804688 262.109375 C31.09999292 269.98764023 32.65214093 274.14427051 37.921875 280.02636719 C43.34084559 285.17286134 47.7138816 286.2479021 55.1875 286.5625 C65.21651879 286.27368019 73.04012587 282.83433094 81.5 277.6875 C87.62190818 274.2755802 93.12810537 273.61414058 100 275 C105.01388724 277.2507596 109.452499 280.24257884 113.96484375 283.35546875 C120.45359499 287.28847552 128.68442784 287.3391101 136 286 C142.3529328 283.96463845 148.3303823 280.78746295 153 276 C153.66 276 154.32 276 155 276 C155.309375 275.360625 155.61875 274.72125 155.9375 274.0625 C157 272 157 272 158 271 C160.58425988 253.30060862 160.8396066 234.04740427 155 217 C154.7745752 216.32485352 154.54915039 215.64970703 154.31689453 214.95410156 C148.12522158 196.85407188 139.3758707 179.30495508 129.66796875 162.8515625 C124.82338905 154.56925997 120.93483685 145.74049825 117 137 C116.49968262 135.95102539 115.99936523 134.90205078 115.48388672 133.82128906 C113.78419996 129.8277558 113.2346277 125.98110691 112.828125 121.68359375 C112.7087558 120.51140541 112.7087558 120.51140541 112.5869751 119.3155365 C111.79420349 110.89884624 111.69449772 102.50992522 111.75 94.0625 C111.75265869 92.88114975 111.75265869 92.88114975 111.75537109 91.67593384 C111.79369073 77.05017515 112.58654622 62.56120532 114 48 C127.31525941 47.65464745 127.31525941 47.65464745 133.3125 49 C141.44142508 51.02322462 141.44142508 51.02322462 149.15234375 48.66796875 C150.7832629 47.34371816 152.3832258 45.98096401 153.9609375 44.59375 C157.67229596 41.42621528 161.586122 38.63477189 165.5625 35.8125 C171.65929421 31.44921386 177.68175314 27.00780118 183.625 22.4375 C184.31859619 21.90487549 185.01219238 21.37225098 185.72680664 20.82348633 C188.53593577 18.66496133 191.34391518 16.50494408 194.15136719 14.34423828 C216.12639248 -2.5232131 216.12639248 -2.5232131 229 -1 C231.84602977 -0.38542256 234.62822538 0.36546546 237.43359375 1.14453125 C241.92641735 2.2222184 246.42553582 2.87256418 251 3.5 C251.90435791 3.6242334 252.80871582 3.7484668 253.74047852 3.87646484 C255.58887624 4.12857096 257.43742894 4.37954334 259.28613281 4.62939453 C271.86487236 6.34714612 284.38875055 8.35533289 296.88574219 10.58959961 C300.97293557 11.3175566 305.04896095 12.03517265 309.16796875 12.55859375 C310.30878906 12.70425781 311.44960938 12.84992187 312.625 13 C314.03652344 13.1546875 314.03652344 13.1546875 315.4765625 13.3125 C318.78473762 14.21379848 320.56275741 15.60434858 323 18 C327.87066945 27.51721865 324.80088761 42.1136234 323.6875 52.3125 C323.55432373 53.58689941 323.42114746 54.86129883 323.28393555 56.17431641 C321.95145857 68.79342759 320.50214155 81.40004315 319 94 C318.55269531 93.61328125 318.10539062 93.2265625 317.64453125 92.828125 C314.1478974 89.81609925 310.62592537 86.85678969 307 84 C306.70609375 85.31871094 306.70609375 85.31871094 306.40625 86.6640625 C305.31930375 91.45456085 304.16742887 96.22853614 303 101 C302.7102832 102.18416504 302.42056641 103.36833008 302.12207031 104.58837891 C301.30753999 107.87763668 300.47842668 111.16213021 299.6340332 114.44378662 C299.13522101 116.3974677 298.65239841 118.35520899 298.16992188 120.31298828 C294.0211678 136.25742342 286.38306539 144.96820901 272.875 153.875 C272.30136719 154.25664307 271.72773438 154.63828613 271.13671875 155.03149414 C264.12553599 159.49069462 257.16200024 160.85330002 249 160 C245.90593521 159.20817573 242.95803384 158.20036156 240 157 C240.55429687 158.00160156 241.10859375 159.00320312 241.6796875 160.03515625 C242.41182328 161.37740517 243.14357362 162.71986438 243.875 164.0625 C244.23980469 164.71927734 244.60460937 165.37605469 244.98046875 166.05273438 C247.28546469 170.3064996 248.8389164 174.30066691 250 179 C244.33778322 182.61752739 238.59767367 182.69040043 232 183 C237.56015376 192.90794316 243.67517852 202.45415315 249.79296875 212.0234375 C250.34645996 212.89194336 250.89995117 213.76044922 251.47021484 214.65527344 C252.7389401 216.59986925 254.06259323 218.47365866 255.42578125 220.3515625 C257.12659616 223.21298312 257.384395 224.73264249 257 228 C256.32453125 228.15855469 255.6490625 228.31710937 254.953125 228.48046875 C249.15864355 229.97103282 249.15864355 229.97103282 244.4375 233.5 C239.92397894 241.34960185 242.0539221 250.59485374 244 259 C244.72296871 261.47433142 245.49720897 263.92866174 246.2734375 266.38671875 C247.60576241 271.17879061 248.26188286 276.08816592 249 281 C249.26554687 282.02609375 249.53109375 283.0521875 249.8046875 284.109375 C250 287 250 287 248.47265625 289.35546875 C245.2648919 291.48891076 243.26142357 291.43865903 239.4375 291.3125 C238.30183594 291.28800781 237.16617187 291.26351563 235.99609375 291.23828125 C233 291 233 291 230 290 C215.71632897 288.72702379 204.46147224 290.58943241 191.75 297.25 C185.25759747 300.60138544 178.60946732 303.04802285 171.6875 305.375 C170.67333008 305.72079102 169.65916016 306.06658203 168.61425781 306.42285156 C162.69426702 308.36252713 157.21581028 309.54911221 151 310 C151.49944186 303.90680936 152.59199925 298.42618427 154.37890625 292.578125 C155.0110223 289.95424705 155.11118266 287.68771997 155 285 C154.29875 285.48210937 153.5975 285.96421875 152.875 286.4609375 C142.00356168 293.69871573 132.81153925 295.01413988 120 294 C113.95517717 292.60952422 109.11232892 289.46945531 103.875 286.25 C98.74221576 283.18741683 95.91149094 281.99805238 90 283 C84.49176742 285.20329303 79.25067054 287.84524113 73.98632812 290.5703125 C65.34388402 294.97217207 55.20598589 295.23565339 45.6875 293.4375 C42 292 42 292 32 285 C32.33 293.25 32.66 301.5 33 310 C17.25397796 306.96462226 2.31128852 301.09402331 -11.85083008 293.61450195 C-19.12154014 289.77863337 -24.76835929 288.67772683 -32.875 288.75 C-33.73480469 288.74226563 -34.59460938 288.73453125 -35.48046875 288.7265625 C-41.01765197 288.7433673 -45.66314969 289.56870335 -51 291 C-54.265625 291.3359375 -54.265625 291.3359375 -57.25 291.375 C-58.24515625 291.40335937 -59.2403125 291.43171875 -60.265625 291.4609375 C-63 291 -63 291 -65.421875 289.3515625 C-67 287 -67 287 -66.8359375 284.23828125 C-66.56007812 283.16964844 -66.28421875 282.10101563 -66 281 C-65.78601563 279.75605469 -65.57203125 278.51210938 -65.3515625 277.23046875 C-64.17411198 270.6107607 -62.92194258 264.27636484 -60.62890625 257.9375 C-59.56677275 254.66533716 -59.21627679 251.42110562 -59 248 C-58.94714844 247.24460937 -58.89429688 246.48921875 -58.83984375 245.7109375 C-58.64710287 240.69967462 -59.15965924 237.31311004 -62 233 C-64.6860286 231.20931427 -66.6626589 230.33944209 -69.6875 229.375 C-70.49574219 229.11460937 -71.30398437 228.85421875 -72.13671875 228.5859375 C-73.05904297 228.29589844 -73.05904297 228.29589844 -74 228 C-74.34046223 223.75862443 -73.50143707 221.61628128 -71.18359375 218.0859375 C-70.58353516 217.15910156 -69.98347656 216.23226562 -69.36523438 215.27734375 C-68.72908203 214.31957031 -68.09292969 213.36179688 -67.4375 212.375 C-66.82841797 211.44042969 -66.21933594 210.50585938 -65.59179688 209.54296875 C-64.35850434 207.65061512 -63.12142168 205.76072634 -61.88061523 203.87329102 C-57.39728205 197.02344703 -52.97663639 190.1579455 -49 183 C-50.04800781 182.87882813 -51.09601563 182.75765625 -52.17578125 182.6328125 C-53.55473886 182.46396055 -54.93364239 182.29466659 -56.3125 182.125 C-57.00279297 182.04636719 -57.69308594 181.96773437 -58.40429688 181.88671875 C-61.95639471 181.44056153 -63.9697029 181.02019807 -67 179 C-65.08321013 172.56404235 -62.54251139 166.81539951 -59.3125 160.9375 C-58.89677734 160.16728516 -58.48105469 159.39707031 -58.05273438 158.60351562 C-57.0415352 156.732216 -56.02168617 154.86559466 -55 153 C-55.89589844 153.04898438 -56.79179688 153.09796875 -57.71484375 153.1484375 C-67.58189024 152.70260187 -79.35959583 141.52722358 -86.2421875 134.8125 C-91.28135008 128.92987244 -93.17199232 122.42359928 -95 115 C-95.26425781 113.95714844 -95.52851562 112.91429687 -95.80078125 111.83984375 C-97.56624318 104.53354744 -98.95101256 97.16052411 -100.3046875 89.76953125 C-101.15323665 85.16925073 -102.0635536 80.58307885 -103 76 C-105.91038864 76 -106.8330156 77.48977421 -108.9375 79.4375 C-111.41183645 81.72683933 -112.76362489 82.9212083 -116 84 C-117.16981973 70.76913502 -117.36406665 57.55917177 -117.45996094 44.28686523 C-117.48241761 41.45748869 -117.5245088 38.62939389 -117.58300781 35.80053711 C-117.66772156 31.69104283 -117.69519768 27.58296179 -117.71875 23.47265625 C-117.75174194 22.21010513 -117.78473389 20.94755402 -117.81872559 19.64674377 C-117.79952547 11.26055602 -117.79952547 11.26055602 -115.65731812 7.88308716 C-111.74017117 4.17810319 -107.83077006 3.12584937 -102.4765625 2.609375 C-101.41989883 2.49604828 -101.41989883 2.49604828 -100.34188843 2.38043213 C-98.10459429 2.14588879 -95.86587426 1.94705327 -93.625 1.75 C-92.16251714 1.60397886 -90.70027198 1.45555632 -89.23828125 1.3046875 C-86.30688166 1.00460096 -83.37457252 0.71876168 -80.44091797 0.44165039 C-75.94586871 0.00790451 -71.46650351 -0.53258365 -66.984375 -1.08203125 C-61.19400433 -1.78419792 -55.45504696 -2.2747028 -49.625 -2.4375 C-42.95925186 -2.69769106 -36.51217011 -3.44271703 -29.9375 -4.5625 C-17.97073595 -6.54372044 -10.40957345 -7.3453469 0 0 Z " fill="#010101" transform="translate(150,32)"/>
<path d="M0 0 C4.09589939 3.14915865 6.71150395 6.64434267 7.64453125 11.7421875 C7.88309374 20.56899981 5.91644811 26.12065791 0.10546875 32.796875 C-2.70479811 35.49172018 -5.61477704 37.70510802 -8.89453125 39.796875 C-9.56613281 40.23 -10.23773438 40.663125 -10.9296875 41.109375 C-15.80460326 43.90057925 -20.35821096 45.18306817 -25.89453125 43.796875 C-33.97640866 39.98670679 -40.68554864 35.11921627 -45.89453125 27.796875 C-46.32507813 27.24515625 -46.755625 26.6934375 -47.19921875 26.125 C-50.66141019 21.11079171 -50.87908141 15.70417597 -49.89453125 9.796875 C-47.52274366 3.96461044 -43.69679011 -0.43587793 -37.953125 -3.10546875 C-25.95339027 -7.51146272 -10.86357257 -6.89892856 0 0 Z " fill="#040404" transform="translate(264.89453125,253.203125)"/>
<path d="M0 0 C4.9668939 2.34632411 9.02150156 5.34109498 12 10 C13.79162907 15.27072272 13.68335231 20.94994308 11.9375 26.1875 C8.5418255 31.11670491 3.94692293 35.54953099 -2 37 C-7.94017342 37.68165924 -11.31398158 36.9054096 -16.23828125 33.5 C-20.30181562 30.04013925 -22.72960786 25.82360319 -23.23828125 20.51171875 C-23.39748922 14.45343647 -23.2418563 10.70043536 -19 6 C-13.07877293 0.67089563 -7.95539823 -1.3491611 0 0 Z " fill="#060606" transform="translate(314,167)"/>
<path d="M0 0 C5.31747775 2.38335161 9.26935217 5.71653387 11.63671875 11.1796875 C12.27789748 18.44637972 12.08331296 24.11071393 7.82421875 30.3046875 C3.59775958 33.88484708 -0.83893056 36.02976389 -6.36328125 36.6796875 C-12.29402183 36.09633597 -16.08268681 33.06729334 -20.55078125 29.3046875 C-24.28355562 24.71050366 -24.7332463 19.83479202 -24.6171875 14.09375 C-23.75933467 8.67333475 -20.62434203 5.36264454 -16.53515625 1.92578125 C-11.34670462 -1.55339075 -5.82087377 -1.86017151 0 0 Z " fill="#060607" transform="translate(195.17578125,167.6953125)"/>
<path d="M0 0 C4.9668939 2.34632411 9.02150156 5.34109498 12 10 C13.79162907 15.27072272 13.68335231 20.94994308 11.9375 26.1875 C8.5418255 31.11670491 3.94692293 35.54953099 -2 37 C-7.94017342 37.68165924 -11.31398158 36.9054096 -16.23828125 33.5 C-20.30181562 30.04013925 -22.72960786 25.82360319 -23.23828125 20.51171875 C-23.39748922 14.45343647 -23.2418563 10.70043536 -19 6 C-13.07877293 0.67089563 -7.95539823 -1.3491611 0 0 Z M-16.640625 10.8359375 C-19.03847488 14.65320426 -18.61852022 18.6497411 -18 23 C-15.8338521 27.4125235 -13.56138 30.09058512 -9 32 C-4.75997034 32.53964014 -2.60761598 32.32167905 1.1875 30.3125 C6.02515596 26.54974809 6.02515596 26.54974809 8.3125 21.078125 C8.43393176 17.04051905 8.16545143 13.4835523 6 10 C2.75377452 6.7447822 -0.40065879 4.68804041 -5.0625 4.4375 C-10.21553755 5.17364822 -13.1881877 6.97249577 -16.640625 10.8359375 Z " fill="#E1E1E3" transform="translate(314,167)"/>
<path d="M0 0 C5.31747775 2.38335161 9.26935217 5.71653387 11.63671875 11.1796875 C12.27789748 18.44637972 12.08331296 24.11071393 7.82421875 30.3046875 C3.59775958 33.88484708 -0.83893056 36.02976389 -6.36328125 36.6796875 C-12.29402183 36.09633597 -16.08268681 33.06729334 -20.55078125 29.3046875 C-24.28355562 24.71050366 -24.7332463 19.83479202 -24.6171875 14.09375 C-23.75933467 8.67333475 -20.62434203 5.36264454 -16.53515625 1.92578125 C-11.34670462 -1.55339075 -5.82087377 -1.86017151 0 0 Z M-17.80859375 10.14453125 C-20.23864416 13.98401089 -20.02138729 17.93572296 -19.17578125 22.3046875 C-16.87137264 26.26856017 -13.96109785 28.7811431 -10.17578125 31.3046875 C-5.19610683 31.87926532 -1.83010339 31.2303402 2.3125 28.55859375 C5.45320574 25.95351225 6.53951315 23.08649669 7.171875 19.12890625 C7.44331945 14.98763835 7.19615047 12.17697167 4.57421875 8.8671875 C0.32510597 4.90778696 -2.17623775 3.82867519 -8.1484375 3.984375 C-12.29530687 4.63956438 -15.09663137 7.08870761 -17.80859375 10.14453125 Z " fill="#E3E3E4" transform="translate(195.17578125,167.6953125)"/>
</svg>
